<svg xmlns="http://www.w3.org/2000/svg" viewBox="0 0 48 48"><path fill="#f26322" d="M8.854,9.152c1.732-1.832,3.973-3.149,6.225-4.288c3.006-1.52,6.28-2.448,9.664-2.448 c2.289,0,4.749,0.849,6.912,1.586c2.293,0.781,4.518,1.843,6.373,3.423c2.084,1.776,3.615,4.13,4.747,6.624 c1.604,3.534,2.971,7.517,2.831,11.434c-0.039,1.085-0.249,2.157-0.515,3.209c-1.37,5.416-4.465,10.626-9.334,13.364 c-1.19,0.669-2.461,1.18-3.739,1.661c-1.409,0.531-2.842,1.033-4.334,1.232c-3.3,0.44-6.878-0.582-10.025-1.445 c-2.273-0.623-4.591-1.265-6.549-2.578c-2.402-1.609-4.063-4.091-5.538-6.578c-1.257-2.12-3.207-4.759-3.267-7.264 c-0.067-2.818,0.292-5.651,1.043-8.368c0.201-0.727,0.433-1.45,0.783-2.118c0.209-0.4,0.458-0.777,0.697-1.159 c0.958-1.539,1.743-3.183,2.749-4.691C7.959,10.175,8.388,9.645,8.854,9.152z"></path><path fill="#010101" d="M26.023,45.555c-2.783,0-5.646-0.785-8.223-1.492l-0.274-0.075 c-2.286-0.626-4.649-1.273-6.696-2.645c-2.471-1.656-4.194-4.217-5.689-6.739c-0.212-0.357-0.444-0.73-0.684-1.114 c-1.219-1.958-2.601-4.178-2.653-6.393c-0.068-2.856,0.289-5.721,1.063-8.513c0.186-0.675,0.429-1.467,0.82-2.216 c0.17-0.324,0.365-0.634,0.561-0.944l0.155-0.248c0.416-0.668,0.799-1.356,1.182-2.043c0.491-0.884,1-1.797,1.576-2.661 c0.386-0.578,0.833-1.137,1.33-1.663l0,0c1.873-1.98,4.267-3.331,6.362-4.391c3.283-1.66,6.611-2.501,9.891-2.501 c2.343,0,4.811,0.841,6.989,1.583c2.785,0.95,4.923,2.1,6.619,3.545c1.94,1.653,3.581,3.94,4.878,6.798 c2.082,4.587,2.996,8.292,2.876,11.657c-0.034,0.977-0.198,2-0.53,3.314c-1.554,6.145-5.044,11.13-9.574,13.678 c-1.155,0.65-2.357,1.146-3.807,1.693c-1.386,0.522-2.871,1.05-4.445,1.26C27.18,45.521,26.604,45.555,26.023,45.555z M9.217,9.496c-0.459,0.485-0.871,1-1.225,1.53c-0.554,0.831-1.053,1.726-1.534,2.593c-0.392,0.702-0.782,1.404-1.206,2.085 l-0.159,0.253c-0.181,0.287-0.362,0.574-0.52,0.874c-0.349,0.666-0.571,1.394-0.743,2.019c-0.747,2.699-1.093,5.465-1.026,8.224 c0.046,1.942,1.351,4.039,2.503,5.888C5.549,33.353,5.785,33.731,6,34.095c1.436,2.42,3.081,4.873,5.387,6.417 c1.911,1.281,4.195,1.906,6.403,2.511l0.275,0.076c3.021,0.829,6.446,1.77,9.551,1.355c1.471-0.196,2.894-0.702,4.225-1.204 c1.407-0.53,2.569-1.01,3.67-1.629c4.293-2.414,7.607-7.171,9.096-13.051c0.313-1.243,0.468-2.201,0.499-3.104 c0.114-3.206-0.771-6.767-2.786-11.209c-1.235-2.723-2.789-4.893-4.616-6.45c-1.599-1.362-3.63-2.452-6.21-3.331 c-2.188-0.746-4.573-1.559-6.75-1.559c-3.121,0-6.297,0.806-9.439,2.394C13.285,6.332,10.984,7.627,9.217,9.496L9.217,9.496z"></path><path fill="#d6e5e5" d="M38.385,26.068c0,3.638-2.711,7.268-5.64,9.159c-3.056,1.972-6.862,2.636-10.467,2.153 c-3.605-0.483-7.012-2.059-9.939-4.219c-0.528-0.39-1.048-0.805-1.442-1.33c-1.206-1.61-0.979-3.826-0.917-5.837 c0.006-0.192,0.008-0.391-0.068-0.568c-0.116-0.265-0.384-0.423-0.615-0.597c-1.472-1.102-1.679-3.532-0.415-4.868 s3.701-1.264,4.884,0.145c2.043-2.099,4.943-3.337,7.872-3.361c0.715-0.006,1.529,0.021,2.026-0.494 c0.298-0.309,0.409-0.749,0.508-1.167c0.36-1.522,0.721-3.043,1.081-4.565c0.047-0.198,0.104-0.413,0.266-0.536 c0.154-0.118,0.364-0.122,0.558-0.118c1.285,0.023,2.568,0.174,3.824,0.45c0.606,0.133,1.236,0.295,1.836,0.14 c0.463-0.119,0.862-0.417,1.321-0.551c0.735-0.215,1.565,0.034,2.125,0.556s0.862,1.286,0.906,2.051 c0.041,0.72-0.163,1.496-0.718,1.956c-0.847,0.703-2.2,0.393-2.993-0.371c-0.45-0.434-0.809-1.01-1.395-1.228 c-0.323-0.121-0.677-0.115-1.022-0.109c-0.797,0.015-1.593,0.031-2.39,0.046c-0.164,0.003-0.337,0.009-0.475,0.097 c-0.168,0.107-0.244,0.309-0.305,0.498c-0.279,0.856-0.474,1.74-0.583,2.634c-0.029,0.241-0.042,0.516,0.123,0.695 c0.128,0.139,0.329,0.178,0.516,0.211c0.192,0.317,2.225,0.445,2.637,0.546c1.648,0.403,3.221,0.974,4.688,1.836 c0.133,0.078,0.27,0.16,0.424,0.172c0.152,0.012,0.299-0.046,0.441-0.101c1.197-0.466,2.553-0.823,3.742-0.338 c1.237,0.504,1.996,1.888,1.939,3.223C40.655,23.675,39.613,25.383,38.385,26.068c0.035-0.02,0.089-0.181,0.102-0.217"></path><path fill="#010101" d="M24.571,38.034c-0.779,0-1.567-0.053-2.36-0.159c-3.458-0.463-6.975-1.955-10.169-4.313 c-0.512-0.377-1.095-0.831-1.546-1.433c-1.19-1.589-1.109-3.689-1.038-5.542l0.021-0.609c0.004-0.122,0.009-0.272-0.026-0.352 c-0.042-0.098-0.191-0.205-0.335-0.308l-0.122-0.089c-0.815-0.611-1.337-1.597-1.432-2.705c-0.095-1.107,0.252-2.167,0.952-2.908 c0.7-0.74,1.752-1.15,2.852-1.113c0.915,0.027,1.763,0.348,2.399,0.896c2.116-1.988,4.954-3.132,7.864-3.156l0.126-0.001 c0.601-0.003,1.223-0.006,1.543-0.34c0.212-0.219,0.303-0.6,0.383-0.936l1.081-4.564c0.051-0.217,0.137-0.581,0.449-0.818 c0.301-0.229,0.669-0.226,0.869-0.221c1.317,0.024,2.638,0.179,3.923,0.461l0.13,0.029c0.531,0.118,1.032,0.229,1.474,0.116 c0.191-0.049,0.387-0.146,0.593-0.248c0.222-0.109,0.451-0.223,0.713-0.299c0.877-0.255,1.897,0.009,2.606,0.671 c0.622,0.58,1.01,1.451,1.063,2.388c0.057,0.97-0.278,1.856-0.897,2.37c-1.094,0.906-2.72,0.511-3.659-0.396 c-0.137-0.132-0.268-0.277-0.397-0.422c-0.269-0.301-0.522-0.584-0.825-0.698c-0.237-0.088-0.538-0.083-0.839-0.077l-2.389,0.046 c-0.056,0.001-0.183,0.003-0.219,0.02c-0.012,0.012-0.043,0.065-0.097,0.23c-0.269,0.824-0.457,1.679-0.562,2.539 c-0.028,0.227-0.008,0.29-0.001,0.303c0.025,0.015,0.173,0.04,0.229,0.049c0.108,0.019,0.208,0.073,0.281,0.153 c0.254,0.12,1.22,0.238,1.641,0.29c0.337,0.042,0.618,0.078,0.748,0.11c1.852,0.453,3.43,1.071,4.824,1.891 c0.068,0.041,0.173,0.102,0.21,0.104c0.028,0,0.146-0.039,0.219-0.067c1.176-0.458,2.704-0.91,4.113-0.335 c1.394,0.568,2.318,2.092,2.25,3.707c-0.065,1.491-1.069,3.21-2.335,4.053c-0.14,3.875-3.104,7.516-5.863,9.296 C30.588,37.214,27.653,38.034,24.571,38.034z M11.241,19.502c-0.789,0-1.514,0.29-1.998,0.802 c-0.504,0.533-0.753,1.312-0.683,2.135c0.07,0.824,0.448,1.549,1.035,1.989l0.106,0.078c0.229,0.166,0.516,0.372,0.668,0.72 c0.124,0.285,0.115,0.572,0.109,0.782l-0.022,0.618c-0.068,1.769-0.139,3.598,0.84,4.904c0.37,0.494,0.885,0.893,1.339,1.228 c3.06,2.258,6.416,3.685,9.708,4.126c3.689,0.494,7.288-0.243,10.13-2.077c2.604-1.681,5.406-5.128,5.411-8.729 c0-0.02,0.001-0.04,0.003-0.06c0.007-0.073,0.03-0.142,0.065-0.202c0.011-0.018,0.021-0.034,0.034-0.05 c0.01-0.025,0.019-0.053,0.024-0.068l0.028,0.009c0.017-0.016,0.034-0.031,0.054-0.044c0.018-0.013,0.036-0.024,0.056-0.035 c1.067-0.601,2.013-2.143,2.065-3.372c0.051-1.181-0.634-2.333-1.627-2.738c-1.085-0.442-2.371-0.049-3.372,0.341 c-0.167,0.065-0.396,0.154-0.663,0.133c-0.264-0.021-0.475-0.145-0.629-0.234c-1.317-0.775-2.807-1.358-4.563-1.787 c-0.109-0.027-0.348-0.054-0.632-0.089c-1.212-0.148-1.811-0.258-2.12-0.478c-0.199-0.042-0.452-0.124-0.648-0.335 c-0.343-0.371-0.279-0.88-0.252-1.097c0.112-0.922,0.314-1.84,0.603-2.726c0.063-0.194,0.181-0.554,0.513-0.766 c0.26-0.167,0.546-0.172,0.735-0.175l2.389-0.046c0.369-0.007,0.791-0.015,1.207,0.141c0.534,0.199,0.898,0.607,1.221,0.967 c0.113,0.126,0.227,0.253,0.347,0.369c0.612,0.591,1.692,0.871,2.326,0.347c0.375-0.312,0.576-0.888,0.538-1.542 c-0.039-0.684-0.312-1.308-0.747-1.714c-0.458-0.427-1.104-0.6-1.644-0.442c-0.192,0.056-0.371,0.147-0.551,0.236 c-0.243,0.12-0.495,0.244-0.786,0.319c-0.675,0.172-1.347,0.024-1.94-0.108l-0.128-0.028c-1.221-0.268-2.475-0.415-3.726-0.438 c-0.146-0.006-0.222,0.004-0.25,0.019c-0.026,0.031-0.063,0.191-0.078,0.251l-1.081,4.564c-0.104,0.438-0.234,0.984-0.636,1.399 c-0.613,0.636-1.524,0.641-2.257,0.645l-0.124,0.001c-2.814,0.023-5.555,1.193-7.518,3.209c-0.099,0.102-0.227,0.164-0.377,0.151 c-0.142-0.005-0.273-0.07-0.364-0.178c-0.472-0.562-1.216-0.898-2.043-0.923C11.306,19.503,11.273,19.502,11.241,19.502z M27.271,16.68C27.271,16.68,27.271,16.68,27.271,16.68C27.271,16.68,27.271,16.68,27.271,16.68z M27.187,16.586L27.187,16.586z"></path><path fill="#f26322" d="M20.657,24.27c-0.146-0.08-0.217-0.257-0.368-0.353c-0.176-0.111-0.371-0.197-0.569-0.261 c-0.398-0.129-0.826-0.166-1.24-0.099c-0.372,0.06-0.736,0.205-1.014,0.459c-0.47,0.429-0.631,1.136-0.479,1.754 c0.21,0.851,0.818,1.256,1.503,1.692c0.177,0.113,0.384,0.164,0.585,0.207c0.197,0.042,0.38,0.078,0.587,0.066 c0.204-0.011,0.393-0.107,0.582-0.174c0.119-0.042,0.199-0.14,0.29-0.229c0.095-0.093,0.234-0.246,0.265-0.384 c0.028-0.126,0.032-0.246,0.074-0.372c0.038-0.116,0.074-0.24,0.1-0.36c0.027-0.127,0.001-0.255,0.032-0.382 c0.024-0.1,0.022-0.194,0.022-0.299c0-0.127,0.003-0.254,0.001-0.381c-0.002-0.117-0.057-0.191-0.101-0.297 C20.869,24.717,20.741,24.394,20.657,24.27"></path><path fill="#010101" d="M19.579,28.236c-0.221,0-0.415-0.038-0.61-0.08c-0.232-0.05-0.501-0.117-0.748-0.274 c-0.684-0.435-1.458-0.927-1.72-1.995c-0.204-0.828,0.042-1.708,0.627-2.242c0.328-0.299,0.768-0.501,1.271-0.583 c0.488-0.078,0.996-0.037,1.475,0.117c0.253,0.083,0.482,0.188,0.682,0.315c0.141,0.089,0.232,0.2,0.3,0.281 c0.069,0.038,0.169,0.147,0.214,0.212c0.096,0.14,0.193,0.371,0.294,0.616l-0.401,0.329l0.451-0.215 c0.044,0.091,0.109,0.229,0.114,0.422l-0.001,0.394c0,0.135,0,0.263-0.034,0.413c-0.006,0.184-0.011,0.278-0.03,0.373 c-0.029,0.136-0.07,0.278-0.113,0.411c-0.018,0.051-0.022,0.099-0.03,0.147c-0.009,0.06-0.019,0.119-0.032,0.179 c-0.046,0.205-0.178,0.412-0.402,0.632c-0.133,0.135-0.265,0.269-0.473,0.343l-0.121,0.046c-0.163,0.063-0.366,0.143-0.602,0.156 C19.651,28.235,19.615,28.236,19.579,28.236z M18.89,24.023c-0.111,0-0.222,0.009-0.331,0.026 c-0.216,0.035-0.523,0.122-0.757,0.334c-0.313,0.286-0.446,0.794-0.33,1.265c0.155,0.632,0.59,0.947,1.286,1.39 c0.107,0.068,0.268,0.107,0.422,0.14c0.169,0.037,0.311,0.063,0.453,0.056c0.076-0.004,0.182-0.045,0.293-0.089l0.149-0.057 c-0.005,0,0.032-0.038,0.059-0.065c0.158-0.156,0.185-0.21,0.185-0.211l0.012-0.087c0.016-0.103,0.033-0.204,0.068-0.31 c0.032-0.098,0.063-0.204,0.085-0.306c0.005-0.167,0.007-0.274,0.035-0.394c0.008-0.035,0.008-0.09,0.008-0.16l0.001-0.393 c-0.004-0.008-0.06-0.109-0.063-0.117c-0.063-0.154-0.129-0.323-0.185-0.43c-0.084-0.069-0.146-0.144-0.195-0.203 c-0.022-0.028-0.055-0.066-0.067-0.076c-0.127-0.08-0.28-0.15-0.453-0.207C19.345,24.06,19.116,24.023,18.89,24.023z"></path><path fill="#f26322" d="M30.801,24.361c-0.1-0.091-0.294-0.243-0.41-0.304c-0.058-0.03-0.084-0.037-0.153-0.044 c-0.11-0.01-0.208-0.037-0.32-0.044c-0.214-0.013-0.418-0.112-0.621-0.166c-0.626-0.168-1.321,0.001-1.662,0.584 c-0.208,0.356-0.265,0.783-0.252,1.195c0.019,0.641,0.219,1.314,0.711,1.724c0.309,0.258,0.703,0.389,1.094,0.482 c0.336,0.08,0.693,0.135,1.024,0.035c0.302-0.091,0.556-0.306,0.748-0.556C31.574,26.467,31.636,25.044,30.801,24.361"></path><path fill="#010101" d="M29.821,28.377c-0.265,0-0.52-0.048-0.748-0.103c-0.392-0.093-0.892-0.244-1.3-0.584 c-0.547-0.456-0.863-1.199-0.891-2.093c-0.017-0.58,0.092-1.072,0.321-1.463c0.427-0.73,1.318-1.059,2.224-0.814 c0.077,0.021,0.155,0.047,0.233,0.074c0.108,0.037,0.211,0.072,0.288,0.077c0.079,0.004,0.155,0.016,0.231,0.029l0.104,0.015 c0.135,0.014,0.223,0.039,0.336,0.098c0.17,0.089,0.396,0.27,0.507,0.37c1.045,0.867,0.983,2.606,0.229,3.589 c-0.28,0.365-0.626,0.617-1,0.73C30.176,28.356,29.996,28.377,29.821,28.377z M28.834,24.242c-0.29,0-0.594,0.103-0.767,0.397 c-0.134,0.229-0.196,0.541-0.185,0.929c0.018,0.594,0.212,1.088,0.531,1.354c0.248,0.208,0.606,0.312,0.891,0.379 c0.251,0.06,0.536,0.111,0.763,0.042c0.218-0.066,0.39-0.244,0.496-0.382c0.46-0.598,0.526-1.719-0.079-2.214 c-0.008-0.006-0.015-0.012-0.021-0.019c-0.093-0.085-0.249-0.201-0.303-0.229c-0.026,0.006-0.089-0.004-0.146-0.015 c-0.04-0.007-0.08-0.015-0.124-0.017c-0.213-0.013-0.393-0.074-0.552-0.128c-0.057-0.02-0.113-0.039-0.17-0.054 C29.065,24.258,28.951,24.242,28.834,24.242z"></path><path fill="#010101" d="M24.4,33.76c-1.854,0-3.775-0.692-5.41-1.951c-0.219-0.168-0.26-0.482-0.092-0.701 c0.169-0.219,0.482-0.26,0.701-0.091c1.461,1.124,3.166,1.743,4.802,1.743c0.804-0.019,1.668-0.17,2.424-0.493 c0.529-0.225,0.942-0.565,1.381-0.925c0.229-0.188,0.461-0.379,0.714-0.559c0.224-0.16,0.537-0.109,0.697,0.117 c0.16,0.225,0.108,0.537-0.117,0.698c-0.232,0.166-0.447,0.343-0.659,0.517c-0.473,0.389-0.962,0.792-1.623,1.073 c-0.875,0.374-1.846,0.572-2.805,0.573C24.409,33.76,24.404,33.76,24.4,33.76z"></path></svg>
